<svg xmlns="http://www.w3.org/2000/svg" width="32" height="32" fill="none" viewBox="0 0 32 32">
    <path fill="#44337A" d="M27.5 3.5h-23c-.553 0-1 .447-1 1v23c0 .553.447 1 1 1h23c.553 0 1-.447 1-1v-23c0-.553-.447-1-1-1zM10.916 24.803h-3.71V12.872h3.71v11.931zM9.062 11.241a2.15 2.15 0 1 1 0-4.301 2.15 2.15 0 0 1 0 4.3zm15.741 13.562h-3.706V19c0-1.384-.025-3.162-1.928-3.162-1.928 0-2.225 1.506-2.225 3.062v5.903H13.24V12.872h3.556v1.631h.05c.494-.937 1.703-1.928 3.51-1.928 3.756 0 4.446 2.472 4.446 5.684v6.544z"/>
</svg>
